<?xml version="1.0" standalone="no"?>
<!DOCTYPE svg PUBLIC "-//W3C//DTD SVG 20010904//EN"
 "http://www.w3.org/TR/2001/REC-SVG-20010904/DTD/svg10.dtd">
<svg version="1.0" xmlns="http://www.w3.org/2000/svg"
 width="1024.000000pt" height="1024.000000pt" viewBox="0 0 1024.000000 1024.000000"
 preserveAspectRatio="xMidYMid meet">

<g transform="translate(0.000000,1024.000000) scale(0.100000,-0.100000)"
fill="#000000" stroke="none">
<path d="M4096 8659 c-565 -47 -1022 -384 -1262 -929 -143 -325 -200 -643
-175 -980 24 -335 100 -625 302 -1159 105 -277 131 -368 159 -561 108 -761
318 -1497 591 -2070 275 -577 487 -811 724 -798 84 5 130 25 191 85 119 116
148 292 94 572 -96 500 -84 982 36 1406 36 129 115 298 164 355 l30 35 25 -30
c40 -47 150 -279 189 -399 102 -308 167 -623 266 -1291 46 -312 88 -494 130
-577 70 -134 219 -192 359 -139 201 76 437 405 660 918 235 543 401 1124 507
1783 19 118 39 241 45 274 11 60 136 425 215 624 104 265 198 611 240 882 24
155 25 469 1 632 -53 362 -220 714 -443 934 -191 188 -428 319 -684 376 -90
20 -132 23 -295 23 -209 0 -243 -5 -497 -75 -124 -34 -157 -40 -248 -40 -135
0 -280 19 -610 80 -397 73 -521 85 -714 69z m374 -154 c58 -8 209 -36 335 -63
127 -27 263 -55 303 -62 40 -8 75 -17 78 -22 6 -10 -265 -144 -381 -189 -231
-90 -530 -111 -860 -63 l-40 6 32 -20 c67 -43 245 -85 435 -102 65 -6 140 -15
168 -22 104 -24 232 19 645 219 299 145 410 191 562 232 162 45 284 64 418 64
151 -1 254 -16 375 -58 473 -161 781 -535 890 -1080 28 -139 38 -450 20 -606
-33 -293 -122 -616 -281 -1026 -157 -404 -161 -418 -229 -811 -98 -568 -184
-909 -333 -1327 -276 -774 -588 -1265 -805 -1265 -123 0 -170 140 -262 780
-61 427 -86 564 -145 805 -83 336 -153 529 -252 696 -113 190 -283 343 -463
416 -106 42 -192 55 -330 50 -169 -6 -218 -25 -299 -113 -57 -62 -160 -238
-147 -251 3 -3 31 16 61 43 145 127 264 176 430 177 146 1 225 -25 375 -126
41 -27 77 -51 78 -53 2 -1 -19 -33 -48 -70 -98 -128 -167 -295 -219 -530 -91
-415 -93 -899 -4 -1354 9 -47 17 -132 17 -190 1 -89 -3 -112 -22 -155 -57
-123 -144 -158 -252 -99 -70 38 -173 150 -260 280 -84 127 -251 461 -345 689
-189 456 -340 1034 -440 1679 -49 315 -50 320 -215 751 -136 353 -221 659
-250 897 -17 132 -8 473 15 598 86 470 332 869 670 1085 153 98 337 164 555
198 63 10 325 5 420 -8z"/>
</g>
</svg>
